<svg width="36" height="36" viewBox="0 0 36 36" fill="none" xmlns="http://www.w3.org/2000/svg">
<g clip-path="url(#clip0_60_1024)">
<path d="M0.749722 17.4879C0.748899 20.4622 1.52604 23.3663 3.00377 25.926L0.608398 34.6719L9.55872 32.3251C12.0343 33.6727 14.8079 34.3789 17.6265 34.3791H17.6339C26.9387 34.3791 34.5129 26.8076 34.5169 17.5012C34.5187 12.9916 32.7641 8.75109 29.5762 5.56074C26.3889 2.37066 22.1498 0.612898 17.6332 0.61084C8.32742 0.61084 0.753701 8.18195 0.749859 17.4879" fill="url(#paint0_linear_60_1024)"/>
<path d="M0.146812 17.4824C0.145852 20.5637 0.950848 23.5717 2.48126 26.2231L0 35.2825L9.27124 32.8516C11.8258 34.2444 14.7019 34.9787 17.6286 34.9798H17.6361C27.2746 34.9798 35.121 27.1359 35.1251 17.4964C35.1268 12.8248 33.309 8.43181 30.0073 5.12717C26.7051 1.82294 22.3145 0.0019209 17.6361 0C7.9959 0 0.150654 7.84278 0.146812 17.4824ZM5.66818 25.7665L5.322 25.2169C3.86678 22.9031 3.09869 20.2292 3.09979 17.4835C3.10281 9.47129 9.62346 2.9527 17.6416 2.9527C21.5246 2.95435 25.1737 4.46802 27.9184 7.21437C30.663 9.96099 32.1732 13.6121 32.1723 17.4953C32.1687 25.5076 25.6479 32.027 17.6361 32.027H17.6303C15.0216 32.0256 12.4631 31.325 10.2318 30.0011L9.70084 29.6862L4.1991 31.1287L5.66818 25.7665Z" fill="url(#paint1_linear_60_1024)"/>
<path d="M13.2665 10.1737C12.9391 9.44609 12.5946 9.43141 12.2832 9.41864C12.0283 9.40767 11.7369 9.40849 11.4457 9.40849C11.1543 9.40849 10.6808 9.51812 10.2806 9.95513C9.87992 10.3925 8.75098 11.4496 8.75098 13.5995C8.75098 15.7494 10.3169 17.8273 10.5352 18.1191C10.7538 18.4104 13.5583 22.9635 18 24.7151C21.6914 26.1707 22.4426 25.8812 23.2438 25.8082C24.0451 25.7355 25.8293 24.7514 26.1933 23.731C26.5576 22.7108 26.5576 21.8362 26.4484 21.6534C26.3392 21.4714 26.0478 21.362 25.6108 21.1436C25.1737 20.9251 23.0252 19.8678 22.6247 19.722C22.2241 19.5763 21.9328 19.5035 21.6413 19.9411C21.3499 20.378 20.5131 21.362 20.258 21.6534C20.0032 21.9456 19.7482 21.9819 19.3113 21.7633C18.874 21.5441 17.4667 21.0832 15.797 19.5946C14.4979 18.4363 13.6209 17.0059 13.3659 16.5684C13.111 16.1315 13.3386 15.8947 13.5578 15.677C13.7541 15.4812 13.9949 15.1667 14.2136 14.9116C14.4315 14.6564 14.5042 14.4743 14.6499 14.1829C14.7958 13.8912 14.7228 13.636 14.6137 13.4174C14.5042 13.1988 13.655 11.0377 13.2665 10.1737Z" fill="white"/>
</g>
<defs>
<linearGradient id="paint0_linear_60_1024" x1="1696.03" y1="3406.72" x2="1696.03" y2="0.61084" gradientUnits="userSpaceOnUse">
<stop stop-color="#1FAF38"/>
<stop offset="1" stop-color="#60D669"/>
</linearGradient>
<linearGradient id="paint1_linear_60_1024" x1="1756.26" y1="3528.25" x2="1756.26" y2="0" gradientUnits="userSpaceOnUse">
<stop stop-color="#F9F9F9"/>
<stop offset="1" stop-color="white"/>
</linearGradient>
<clipPath id="clip0_60_1024">
<rect width="35.1251" height="35.3995" fill="white"/>
</clipPath>
</defs>
</svg>
